<svg width="93" height="30" viewBox="0 0 93 30" fill="none" xmlns="http://www.w3.org/2000/svg">
<path fill-rule="evenodd" clip-rule="evenodd" d="M13.8727 19.3999C13.8435 19.3659 13.7988 19.2696 13.7834 19.299L12.8432 18.5436C10.4062 16.5639 8.73141 13.1006 8.74582 9.73668C8.75538 7.50994 9.39702 5.52575 10.3067 3.94747C11.0142 2.7199 11.7926 1.93223 12.7533 1.01077C13.1046 0.673972 13.453 0.497962 13.8399 0.0881997C9.81301 -0.119918 6.71021 -0.119311 3.89446 1.94037C-1.39413 5.809 -1.21019 13.8941 3.92171 17.5153C7.02218 19.7031 9.55099 19.4876 13.8727 19.3999Z" fill="#D20000"/>
<path fill-rule="evenodd" clip-rule="evenodd" d="M16.6288 11.175C21.3129 15.0634 22.5722 21.1959 19.5324 26.2207C17.9702 28.8032 17.5678 28.5299 16.2297 29.7959L20.0159 29.9852C30.17 29.9885 33.4087 17.2351 25.4389 12.1496C22.6563 10.374 19.7101 10.5438 16.0878 10.6712L16.6288 11.175Z" fill="#D20000"/>
<path fill-rule="evenodd" clip-rule="evenodd" d="M10.6241 8.82691L29.867 8.82352C29.4239 4.04557 25.4782 0.105501 20.3433 0.0585283C15.1371 0.010898 11.0722 3.99319 10.6241 8.82691Z" fill="#D20000"/>
<path fill-rule="evenodd" clip-rule="evenodd" d="M19.258 21.2285L0.0560797 21.2611C0.0205845 22.4893 0.568992 23.7789 1.07487 24.7651C4.05531 30.5752 11.9481 31.7536 16.3345 27.2676C17.8071 25.7615 19.2538 23.6593 19.258 21.2285Z" fill="#D20000"/>
<path d="M39.6544 18.7262C38.9174 18.7262 38.2077 18.6443 37.6892 18.4806C37.1978 18.3168 37.1159 18.0984 37.1159 17.5798V15.9147L34.3317 16.1058V20.4186C35.9694 21.1829 37.6618 21.5377 39.8455 21.5377C43.6124 21.5377 46.4512 19.5724 46.4512 15.9693C46.4512 12.4481 43.8307 11.3289 41.3468 10.5373C39.2996 9.90951 37.7164 9.44554 37.7164 7.75315C37.7164 6.06075 38.972 5.40566 40.5825 5.40566C41.1284 5.40566 41.8381 5.46027 42.3568 5.62399C42.8481 5.78781 42.93 6.00614 42.93 6.52482V8.108L45.7142 7.91692V3.82243C44.0765 3.05817 42.3841 2.70337 40.5825 2.70337C36.8156 2.70337 34.2498 4.72326 34.2498 8.05339C34.2498 11.5473 36.7611 12.6392 39.4634 13.3762C41.3741 13.8948 42.93 14.3862 42.93 16.1058C42.93 18.153 41.456 18.7262 39.6544 18.7262ZM54.5022 8.09156C50.3575 8.09156 48.2598 11.377 48.2598 15.1174C48.2598 18.8831 49.9278 21.5114 54.2242 21.5114C56.5998 21.5114 58.2678 20.45 58.6722 20.0962L57.7118 18.049C57.1052 18.4787 56.0185 19.1611 54.5274 19.1611C52.3793 19.1611 51.52 17.8216 51.4189 16.1789C54.4011 16.1536 58.6216 15.4965 58.6216 11.6045C58.6216 9.35524 56.9789 8.09156 54.5022 8.09156ZM55.8416 11.655C55.8416 13.6011 53.188 14.0307 51.3178 14.0559C51.3936 12.1858 52.3034 10.2398 54.3252 10.2398C55.235 10.2398 55.8416 10.7199 55.8416 11.655ZM66.7089 19.2116C64.4596 19.2116 63.4487 17.4425 63.4487 14.6878C63.4487 11.8825 64.4849 10.3661 66.5067 10.3661C66.8858 10.3661 67.189 10.4167 67.4924 10.5178C67.9473 10.6694 68.0231 10.8969 68.0231 11.377V12.5902L70.3481 12.4132V9.12775C69.1351 8.47069 67.922 8.09156 66.4056 8.09156C63.5498 8.09156 60.3907 9.86072 60.3907 14.991C60.3907 18.8072 62.1851 21.0818 65.2936 21.4609L64.5101 23.9629C65.8496 23.9629 66.7342 24.1398 66.7342 24.9233C66.7342 25.4287 66.4056 25.8584 65.521 25.8584C64.9398 25.8584 64.2069 25.6561 63.8278 25.5298L63.4234 26.844C64.0047 27.0967 64.864 27.2989 65.698 27.2989C67.0879 27.2989 68.7812 26.6923 68.7812 24.8474C68.7812 23.5585 67.7704 22.8761 66.4308 22.7751L66.7342 21.5114C68.4021 21.4356 69.7922 20.829 70.7019 20.0709L69.6152 18.1249C68.5791 18.8831 67.6945 19.2116 66.7089 19.2116ZM77.7025 26.5913C81.4934 26.5913 83.2373 24.8727 83.5405 21.1576C83.6163 20.2478 83.5911 19.2874 83.5911 18.4029V9.02668C82.0999 8.39489 80.1287 8.09156 78.9156 8.09156C75.0994 8.09156 72.3447 10.2398 72.3447 14.8141C72.3447 17.6952 73.6084 20.728 77.2981 20.728C78.5365 20.728 79.8002 20.3236 80.6594 19.3127V20.7027C80.6594 22.8256 80.0529 24.4178 77.7278 24.4178C76.9696 24.4178 76.4136 24.342 75.9334 24.165C75.4785 23.9882 75.3522 23.7354 75.3522 23.2553V22.0422L72.9512 22.2444V25.7572C74.0127 26.288 76.1103 26.5913 77.7025 26.5913ZM80.6594 16.0272C80.6594 17.5689 79.4969 18.504 78.0816 18.504C75.7312 18.504 75.4532 16.2295 75.4532 14.5109C75.4532 11.9584 76.5399 10.2903 78.6376 10.2903C79.3452 10.2903 80.0781 10.3914 80.6594 10.5936V16.0272ZM90.6169 8.47069H86.0931V10.5683L86.9777 10.6189C87.4578 10.6189 87.6094 10.7958 87.6094 11.3518V18.3776C87.6094 18.9842 87.3315 19.1358 86.8766 19.1863L86.0426 19.2621V21.1829H92.0575V19.1611L90.6169 19.0852V8.47069Z" fill="#200000"/>
<path d="M34.3308 25.1697V24.7563H35.1932V25.0881C35.3718 24.8329 35.6321 24.6798 35.9689 24.6798C36.2955 24.6798 36.5303 24.8125 36.6476 25.0881C36.8262 24.8329 37.0865 24.6798 37.4233 24.6798C37.903 24.6798 38.1888 24.9656 38.1888 25.5677V26.8997L38.4796 26.915V27.3232H37.2651V26.9354L37.4335 26.9201C37.5254 26.9099 37.5764 26.8792 37.5815 26.7568V25.7004C37.5815 25.3891 37.556 25.1493 37.2294 25.1493C36.8875 25.1493 36.7344 25.3738 36.7344 25.6749V26.8997L37.0151 26.915V27.3232H35.8107V26.9354L35.9791 26.9201C36.0761 26.9099 36.1271 26.8792 36.1271 26.7517V25.7004C36.1271 25.3891 36.1016 25.1493 35.775 25.1493C35.4178 25.1493 35.28 25.3993 35.28 25.6647V26.8997L35.5556 26.915V27.3232H34.3512V26.9354L34.5196 26.9201C34.6166 26.9099 34.6676 26.8792 34.6676 26.7517H34.6727V25.3432C34.6727 25.2309 34.6421 25.1901 34.5451 25.185L34.3308 25.1697Z" fill="#D20000"/>
<path d="M42.0416 24.8584V26.7568C42.0416 26.869 42.0723 26.8997 42.1692 26.9048L42.3325 26.915V27.3232H41.5211V27.0272L41.5058 27.0221C41.3476 27.2518 41.0873 27.3896 40.8067 27.3896C40.0871 27.3896 39.7861 26.8792 39.7861 26.1495C39.7861 25.2514 40.2147 24.6798 41.1333 24.6798C41.3017 24.6798 41.6742 24.7206 42.0416 24.8584ZM41.4497 26.5118V25.1901C41.3731 25.1544 41.2149 25.1238 41.0567 25.1238C40.5719 25.1238 40.4086 25.578 40.4086 26.1291C40.4086 26.5526 40.5107 26.9558 40.9394 26.9558C41.2558 26.9558 41.4497 26.7313 41.4497 26.5118Z" fill="#D20000"/>
<path d="M43.9298 26.7517V24.2664C43.9298 24.1542 43.8992 24.1236 43.8022 24.1185L43.6236 24.1083V23.6847H44.532V25.8943C44.8943 25.8586 45.2005 25.6647 45.3076 25.333C45.3485 25.2105 45.2974 25.1646 45.226 25.1646L45.0321 25.1544V24.7563H46.0884V25.1697L45.8435 25.1799C45.7975 25.532 45.6597 25.7923 45.3944 26.0015L45.8945 26.8997L46.2058 26.915V27.3232H45.4607L44.879 26.2618C44.7718 26.2924 44.6493 26.3179 44.532 26.3332V26.8997H44.5371L44.8279 26.915V27.3232H43.6134V26.9354L43.7818 26.9201C43.8788 26.9099 43.9298 26.8792 43.9298 26.7517Z" fill="#D20000"/>
<path d="M50.125 26.9201V27.3232H49.2983V26.9915C49.1197 27.2467 48.8084 27.3896 48.4716 27.3896C47.9613 27.3896 47.6806 27.1089 47.6806 26.5067V25.3279C47.6806 25.2207 47.6398 25.1901 47.553 25.185L47.3897 25.1748V24.7563H48.2879V26.374C48.2879 26.6853 48.3389 26.9201 48.6655 26.9201C49.0227 26.9201 49.2115 26.6802 49.2115 26.4149V25.3381C49.2115 25.2258 49.1809 25.1901 49.084 25.185L48.9207 25.1748V24.7563H49.8188V26.7568C49.8188 26.869 49.8494 26.8946 49.9464 26.9048L50.125 26.9201Z" fill="#D20000"/>
<path d="M52.3193 23.6847V26.8997L52.6102 26.915V27.3232H51.3957V26.9354L51.5641 26.9201C51.6559 26.9099 51.7121 26.8792 51.7121 26.7568V24.2409C51.7121 24.1491 51.661 24.1236 51.5845 24.1185L51.4059 24.1083V23.6847H52.3193Z" fill="#D20000"/>
<path d="M54.8096 23.6847V26.8997L55.1005 26.915V27.3232H53.886V26.9354L54.0544 26.9201C54.1462 26.9099 54.2024 26.8792 54.2024 26.7568V24.2409C54.2024 24.1491 54.1513 24.1236 54.0748 24.1185L53.8962 24.1083V23.6847H54.8096Z" fill="#D20000"/>
<path d="M58.2645 27.2263V26.8384C58.0859 27.0936 57.7746 27.2365 57.4378 27.2365C56.9274 27.2365 56.6468 26.9558 56.6468 26.3536V25.3279C56.6468 25.2207 56.6059 25.1901 56.5192 25.185L56.3559 25.1748V24.7563H57.254V26.2209C57.254 26.5322 57.3051 26.767 57.6317 26.767C57.9889 26.767 58.1777 26.5271 58.1777 26.2618V25.3381C58.1777 25.2258 58.1471 25.185 58.0501 25.185L57.8868 25.1748V24.7563H58.785V27.2263C58.785 28.0683 58.3614 28.4153 57.6011 28.4153C57.2796 28.4153 56.856 28.354 56.6417 28.2469V27.5375L57.1265 27.4967V27.7417C57.1265 27.8386 57.152 27.8897 57.2438 27.9254C57.3408 27.9611 57.4531 27.9764 57.6062 27.9764C58.0756 27.9764 58.2645 27.6906 58.2645 27.2263Z" fill="#D20000"/>
<path d="M60.5966 26.7517V24.2664C60.5966 24.1542 60.566 24.1236 60.469 24.1185L60.2904 24.1083V23.6847H61.1988V25.8943C61.5611 25.8586 61.8673 25.6647 61.9745 25.333C62.0153 25.2105 61.9643 25.1646 61.8928 25.1646L61.6989 25.1544V24.7563H62.7552V25.1697L62.5103 25.1799C62.4644 25.532 62.3266 25.7923 62.0612 26.0015L62.5613 26.8997L62.8726 26.915V27.3232H62.1276L61.5458 26.2618C61.4386 26.2924 61.3162 26.3179 61.1988 26.3332V26.8997H61.2039L61.4948 26.915V27.3232H60.2802V26.9354L60.4486 26.9201C60.5456 26.9099 60.5966 26.8792 60.5966 26.7517Z" fill="#D20000"/>
<path d="M88.7161 6.52763C89.5908 6.52763 90.2908 5.82228 90.2908 4.94886C90.2908 4.50491 90.1346 4.13069 89.8344 3.83065C89.5219 3.51817 89.1478 3.35779 88.7161 3.35779C88.2803 3.35779 87.9062 3.51817 87.5937 3.83065C87.2812 4.13069 87.1373 4.50491 87.1373 4.94886C87.1373 5.38471 87.2812 5.75468 87.5937 6.05902C87.9062 6.3715 88.2803 6.52763 88.7161 6.52763Z" fill="#D20000"/>
<path fill-rule="evenodd" clip-rule="evenodd" d="M88.7023 5.9161C89.1812 5.65448 89.3813 5.10542 89.149 4.6723C88.9474 4.29651 88.4849 4.12859 88.0419 4.24024C88.1363 4.10983 88.2618 3.99895 88.4145 3.91977C88.9381 3.64814 89.5827 3.85237 89.8543 4.37595C90.1259 4.89953 89.9217 5.54416 89.3981 5.81578C89.1754 5.93132 88.9308 5.96075 88.7023 5.9161Z" fill="white" fill-opacity="0.690196"/>
</svg>
