<svg width="277" height="90" viewBox="0 0 277 90" fill="none" xmlns="http://www.w3.org/2000/svg">
<path fill-rule="evenodd" clip-rule="evenodd" d="M41.6181 58.1998C41.5304 58.0976 41.3964 57.8087 41.3502 57.8969L38.5296 55.6309C31.2186 49.6917 26.1942 39.3018 26.2375 29.2101C26.2661 22.5298 28.1911 16.5772 30.92 11.8424C33.0425 8.15971 35.3778 5.7967 38.26 3.03232C39.3137 2.02192 40.359 1.49389 41.5198 0.264599C29.439 -0.359753 20.1306 -0.357932 11.6834 5.82112C-4.18239 17.427 -3.63056 41.6824 11.7651 52.546C21.0665 59.1092 28.653 58.4628 41.6181 58.1998Z" fill="#D20000"/>
<path fill-rule="evenodd" clip-rule="evenodd" d="M49.8863 33.525C63.9386 45.19 67.7164 63.5876 58.5971 78.662C53.9104 86.4095 52.7033 85.5897 48.689 89.3876L60.0476 89.9554C90.5099 89.9653 100.226 51.7052 76.3167 36.4486C67.9687 31.1218 59.13 31.6311 48.2632 32.0134L49.8863 33.525Z" fill="#D20000"/>
<path fill-rule="evenodd" clip-rule="evenodd" d="M31.8723 26.4806L89.6007 26.4704C88.2714 12.1366 76.4344 0.316382 61.0298 0.175463C45.4113 0.0325719 33.2165 11.9794 31.8723 26.4806Z" fill="#D20000"/>
<path fill-rule="evenodd" clip-rule="evenodd" d="M57.774 63.6854L0.168239 63.7833C0.0617534 67.4676 1.70698 71.3366 3.22463 74.2953C12.1659 91.7254 35.8443 95.2607 49.0036 81.8026C53.4214 77.2843 57.7615 70.9779 57.774 63.6854Z" fill="#D20000"/>
<path d="M118.963 56.1787C116.752 56.1787 114.623 55.9329 113.067 55.4418C111.593 54.9503 111.348 54.2953 111.348 52.7393V47.7442L102.995 48.3174V61.2557C107.908 63.5487 112.985 64.6132 119.537 64.6132C130.837 64.6132 139.354 58.7172 139.354 47.9078C139.354 37.3442 131.492 33.9867 124.04 31.612C117.899 29.7285 113.149 28.3366 113.149 23.2594C113.149 18.1823 116.916 16.217 121.748 16.217C123.385 16.217 125.514 16.3808 127.07 16.872C128.544 17.3634 128.79 18.0184 128.79 19.5745V24.324L137.143 23.7508V11.4673C132.229 9.17451 127.152 8.11011 121.748 8.11011C110.447 8.11011 102.749 14.1698 102.749 24.1602C102.749 34.642 110.283 37.9175 118.39 40.1285C124.122 41.6844 128.79 43.1585 128.79 48.3174C128.79 54.459 124.368 56.1787 118.963 56.1787ZM163.506 24.2747C151.072 24.2747 144.779 34.1311 144.779 45.3523C144.779 56.6492 149.783 64.5343 162.673 64.5343C169.799 64.5343 174.803 61.3499 176.017 60.2886L173.135 54.1471C171.316 55.436 168.056 57.4832 163.582 57.4832C157.138 57.4832 154.56 53.4647 154.257 48.5366C163.203 48.4609 175.865 46.4896 175.865 34.8134C175.865 28.0657 170.937 24.2747 163.506 24.2747ZM167.525 34.9651C167.525 40.8032 159.564 42.0921 153.953 42.1678C154.181 36.5573 156.91 30.7194 162.976 30.7194C165.705 30.7194 167.525 32.1598 167.525 34.9651ZM200.127 57.6348C193.379 57.6348 190.346 52.3275 190.346 44.0634C190.346 35.6476 193.455 31.0984 199.52 31.0984C200.657 31.0984 201.567 31.2501 202.477 31.5533C203.842 32.0083 204.069 32.6906 204.069 34.1311V37.7705L211.044 37.2397V27.3833C207.405 25.4121 203.766 24.2747 199.217 24.2747C190.649 24.2747 181.172 29.5821 181.172 44.9731C181.172 56.4217 186.555 63.2454 195.881 64.3826L193.53 71.8887C197.549 71.8887 200.202 72.4194 200.202 74.7698C200.202 76.2861 199.217 77.5752 196.563 77.5752C194.819 77.5752 192.621 76.9684 191.483 76.5895L190.27 80.5321C192.014 81.2902 194.592 81.8967 197.094 81.8967C201.264 81.8967 206.344 80.077 206.344 74.5423C206.344 70.6756 203.311 68.6284 199.293 68.3252L200.202 64.5343C205.206 64.3068 209.376 62.4871 212.106 60.2126L208.846 54.3747C205.737 56.6492 203.084 57.6348 200.127 57.6348ZM233.107 79.7738C244.48 79.7738 249.712 74.6182 250.621 63.4728C250.849 60.7433 250.773 57.8623 250.773 55.2086V27.08C246.3 25.1847 240.386 24.2747 236.747 24.2747C225.298 24.2747 217.034 30.7194 217.034 44.4424C217.034 53.0857 220.825 62.1839 231.894 62.1839C235.61 62.1839 239.401 60.9708 241.978 57.9381V62.1082C241.978 68.4769 240.159 73.2534 233.183 73.2534C230.909 73.2534 229.241 73.0259 227.8 72.4951C226.436 71.9645 226.057 71.2062 226.057 69.7658V66.1265L218.854 66.7331V77.2717C222.038 78.8641 228.331 79.7738 233.107 79.7738ZM241.978 48.0817C241.978 52.7067 238.491 55.5119 234.245 55.5119C227.194 55.5119 226.36 48.6884 226.36 43.5327C226.36 35.8751 229.62 30.8709 235.913 30.8709C238.036 30.8709 240.234 31.1743 241.978 31.7809V48.0817ZM271.851 25.4121H258.279V31.705L260.933 31.8566C262.373 31.8566 262.828 32.3873 262.828 34.0555V55.1328C262.828 56.9525 261.994 57.4074 260.63 57.5589L258.128 57.7864V63.5487H276.172V57.4832L271.851 57.2557V25.4121Z" fill="#200000"/>
<path d="M102.992 75.5092V74.2692H105.58V75.2643C106.115 74.4988 106.896 74.0395 107.907 74.0395C108.886 74.0395 109.591 74.4376 109.943 75.2643C110.479 74.4988 111.259 74.0395 112.27 74.0395C113.709 74.0395 114.566 74.8969 114.566 76.7034V80.6991L115.439 80.745V81.9698H111.795V80.8063L112.3 80.7603C112.576 80.7297 112.729 80.6379 112.744 80.2704V77.1014C112.744 76.1675 112.668 75.448 111.688 75.448C110.662 75.448 110.203 76.1216 110.203 77.0249V80.6991L111.045 80.745V81.9698H107.432V80.8063L107.937 80.7603C108.228 80.7297 108.381 80.6379 108.381 80.2551V77.1014C108.381 76.1675 108.305 75.448 107.325 75.448C106.253 75.448 105.84 76.1981 105.84 76.9942V80.6991L106.667 80.745V81.9698H103.054V80.8063L103.559 80.7603C103.85 80.7297 104.003 80.6379 104.003 80.2551H104.018V76.0297C104.018 75.6929 103.926 75.5705 103.635 75.5552L102.992 75.5092Z" fill="#D20000"/>
<path d="M126.125 74.5754V80.2704C126.125 80.6072 126.217 80.6991 126.508 80.7144L126.997 80.745V81.9698H124.563V81.0818L124.517 81.0665C124.043 81.7554 123.262 82.1688 122.42 82.1688C120.261 82.1688 119.358 80.6379 119.358 78.4486C119.358 75.7542 120.644 74.0395 123.4 74.0395C123.905 74.0395 125.023 74.162 126.125 74.5754ZM124.349 79.5356V75.5705C124.119 75.4633 123.645 75.3714 123.17 75.3714C121.716 75.3714 121.226 76.734 121.226 78.3874C121.226 79.6581 121.532 80.8675 122.818 80.8675C123.767 80.8675 124.349 80.1939 124.349 79.5356Z" fill="#D20000"/>
<path d="M131.789 80.2551V72.7995C131.789 72.4627 131.697 72.3708 131.407 72.3555L130.871 72.3249V71.0542H133.596V77.6832C134.683 77.576 135.601 76.9942 135.923 75.9991C136.045 75.6317 135.892 75.4939 135.678 75.4939L135.096 75.4633V74.2692H138.265V75.5092L137.53 75.5398C137.393 76.5962 136.979 77.377 136.183 78.0047L137.683 80.6991L138.617 80.745V81.9698H136.382L134.637 78.7854C134.315 78.8773 133.948 78.9538 133.596 78.9998V80.6991H133.611L134.484 80.745V81.9698H130.84V80.8063L131.345 80.7603C131.636 80.7297 131.789 80.6379 131.789 80.2551Z" fill="#D20000"/>
<path d="M150.375 80.7603V81.9698H147.895V80.9747C147.359 81.7401 146.425 82.1688 145.415 82.1688C143.884 82.1688 143.042 81.3268 143.042 79.5203V75.9838C143.042 75.6623 142.919 75.5705 142.659 75.5552L142.169 75.5245V74.2692H144.864V79.1222C144.864 80.0561 145.017 80.7603 145.996 80.7603C147.068 80.7603 147.635 80.0408 147.635 79.2447V76.0144C147.635 75.6776 147.543 75.5705 147.252 75.5552L146.762 75.5245V74.2692H149.456V80.2704C149.456 80.6072 149.548 80.6838 149.839 80.7144L150.375 80.7603Z" fill="#D20000"/>
<path d="M156.958 71.0542V80.6991L157.831 80.745V81.9698H154.187V80.8063L154.692 80.7603C154.968 80.7297 155.136 80.6379 155.136 80.2704V72.7229C155.136 72.4474 154.983 72.3708 154.753 72.3555L154.218 72.3249V71.0542H156.958Z" fill="#D20000"/>
<path d="M164.429 71.0542V80.6991L165.302 80.745V81.9698H161.658V80.8063L162.163 80.7603C162.439 80.7297 162.607 80.6379 162.607 80.2704V72.7229C162.607 72.4474 162.454 72.3708 162.224 72.3555L161.689 72.3249V71.0542H164.429Z" fill="#D20000"/>
<path d="M174.793 81.6789V80.5154C174.257 81.2809 173.324 81.7095 172.313 81.7095C170.782 81.7095 169.94 80.8675 169.94 79.061V75.9838C169.94 75.6623 169.818 75.5705 169.558 75.5552L169.068 75.5245V74.2692H171.762V78.663C171.762 79.5968 171.915 80.3011 172.895 80.3011C173.967 80.3011 174.533 79.5815 174.533 78.7854V76.0144C174.533 75.6776 174.441 75.5552 174.15 75.5552L173.66 75.5245V74.2692H176.355V81.6789C176.355 84.2049 175.084 85.246 172.803 85.246C171.839 85.246 170.568 85.0623 169.925 84.7408V82.6128L171.379 82.4903V83.2251C171.379 83.516 171.456 83.6691 171.731 83.7763C172.022 83.8834 172.359 83.9294 172.818 83.9294C174.227 83.9294 174.793 83.0721 174.793 81.6789Z" fill="#D20000"/>
<path d="M181.79 80.2551V72.7995C181.79 72.4627 181.698 72.3708 181.407 72.3555L180.871 72.3249V71.0542H183.596V77.6832C184.683 77.576 185.602 76.9942 185.923 75.9991C186.046 75.6317 185.893 75.4939 185.678 75.4939L185.097 75.4633V74.2692H188.266V75.5092L187.531 75.5398C187.393 76.5962 186.98 77.377 186.184 78.0047L187.684 80.6991L188.618 80.745V81.9698H186.383L184.637 78.7854C184.316 78.8773 183.948 78.9538 183.596 78.9998V80.6991H183.612L184.484 80.745V81.9698H180.841V80.8063L181.346 80.7603C181.637 80.7297 181.79 80.6379 181.79 80.2551Z" fill="#D20000"/>
<path d="M266.148 19.583C268.772 19.583 270.872 17.467 270.872 14.8467C270.872 13.5149 270.403 12.3922 269.503 11.4921C268.566 10.5546 267.443 10.0735 266.148 10.0735C264.841 10.0735 263.718 10.5546 262.781 11.4921C261.844 12.3922 261.412 13.5149 261.412 14.8467C261.412 16.1542 261.844 17.2642 262.781 18.1772C263.718 19.1146 264.841 19.583 266.148 19.583Z" fill="#D20000"/>
<path fill-rule="evenodd" clip-rule="evenodd" d="M266.107 17.7483C267.543 16.9635 268.144 15.3163 267.447 14.0169C266.842 12.8895 265.455 12.3858 264.126 12.7207C264.409 12.3295 264.785 11.9969 265.244 11.7593C266.814 10.9444 268.748 11.5571 269.563 13.1278C270.378 14.6986 269.765 16.6325 268.194 17.4473C267.526 17.794 266.792 17.8822 266.107 17.7483Z" fill="white" fill-opacity="0.690196"/>
</svg>
